<svg width="68" height="68" viewBox="0 0 68 68" fill="none" xmlns="http://www.w3.org/2000/svg">
<g clip-path="url(#clip0_14_833)">
<g clip-path="url(#clip1_14_833)">
<mask id="mask0_14_833" style="mask-type:luminance" maskUnits="userSpaceOnUse" x="2" y="0" width="64" height="68">
<path d="M65.1108 0H2.89V67.998H65.1108V0Z" fill="white"/>
</mask>
<g mask="url(#mask0_14_833)">
<path d="M10.9026 3.47968C12.176 3.50943 13.6272 3.46958 14.9041 3.45796L19.8014 3.45288L38.2993 3.45789L45.3467 3.46394C46.4812 3.46696 47.6243 3.44279 48.7575 3.47546C48.8654 3.48087 48.9494 3.49402 49.0371 3.56292C49.6085 4.01073 50.1101 4.56499 50.6287 5.07213C51.8761 6.29208 53.0694 7.56193 54.2872 8.81064C55.2308 9.79478 56.193 10.7612 57.1728 11.7095C58.0035 12.5258 58.8365 13.3371 59.6397 14.182C59.7957 14.3461 59.889 14.4563 59.9664 14.6727C60.0328 15.0317 60.0012 15.894 59.9959 16.2808C59.985 17.0095 59.9813 17.7382 59.985 18.4669L59.968 24.5429C59.9671 25.5154 60.0129 26.8579 59.9714 27.8072C59.9956 28.1045 59.9614 28.2472 59.7496 28.4654C58.8236 29.4183 57.9009 30.3741 56.9779 31.3302C56.2066 32.1292 55.2813 32.9388 54.5631 33.7716L54.594 33.8124C54.856 34.1561 55.2876 34.5379 55.608 34.8454C55.9334 35.1598 56.2515 35.4815 56.5622 35.8106C57.1021 36.384 57.6509 36.9485 58.2087 37.5046C58.6187 37.9163 59.6742 38.8447 59.9139 39.3185C60.0816 39.6495 60.0092 44.9238 60.0039 45.7088C60.0062 47.8444 60.0252 50.0733 59.9684 52.207C60.0401 53.21 59.6062 53.3166 58.9444 53.9999L56.3783 56.6044L52.6667 60.3447C51.584 61.45 50.5424 62.5789 49.3986 63.6258C49.2857 63.7294 49.0766 63.9459 48.9232 63.9638C48.454 64.0183 47.9766 64.0107 47.5048 64.0127L45.4443 64.0113L39.217 63.9897L20.7857 63.9917L13.908 64.0113C12.967 64.017 11.8476 63.9682 10.9261 64.018C10.8408 62.6855 10.8756 61.1731 10.876 59.8257L10.8769 53.3438L10.8766 43.9068C10.8633 42.1315 10.8724 40.3558 10.9038 38.5807C11.9535 38.5754 13.0032 38.5784 14.0528 38.589C14.1191 39.0366 14.0981 40.5032 14.1014 41.0278L14.1124 46.3111C14.1322 49.2721 14.1305 52.2332 14.1074 55.1946C14.1052 57.0008 14.1423 59.0166 14.0475 60.8092C15.418 60.7299 16.7544 60.7498 18.1254 60.7465L24.1977 60.7468L40.6875 60.7511L45.6156 60.7587C45.9237 60.7594 47.6635 60.7886 47.7385 60.7299C48.6788 59.9947 50.8233 57.711 51.5783 56.9341L54.8995 53.557C55.1946 53.2519 56.5778 51.8985 56.7339 51.6236C56.6449 50.6567 56.6947 48.8634 56.6934 47.8351L56.6854 40.5337C56.4835 40.1897 55.8517 39.5997 55.5502 39.3026L53.9755 37.747L49.4677 33.1634C48.4989 32.1836 47.4142 31.1443 46.4789 30.1414L46.4457 30.1135C45.7581 29.5319 46.3627 29.3243 46.7956 28.8259C46.8926 28.7144 47.0101 28.606 47.114 28.499L47.2355 28.5733C47.201 28.5896 47.0788 28.6492 47.0622 28.6777C46.8487 29.0488 46.5954 29.3934 46.3763 29.7583C46.3225 39.8479 46.4513 30.0499 46.4789 30.1414Z" fill="#6134CC"/>
<path d="M59.9664 14.6727C60.0328 15.0317 60.0013 15.8939 59.9959 16.2808C59.985 17.0094 59.9813 17.7382 59.985 18.4669L59.9681 24.5429C59.9671 25.5154 60.0129 26.8578 59.9714 27.8072C59.8847 27.6198 59.9236 27.6543 59.9186 27.4556L59.8661 27.4145L59.8416 27.5924C59.7981 26.4503 59.8263 25.1821 59.8289 24.032L59.8309 18.3901L59.8352 16.5899C59.8366 16.399 59.8605 16.1224 59.8535 15.9525L59.8508 15.9009L59.8645 15.946L59.8532 15.9048L59.8608 16.0001C60.0321 15.7481 59.9687 15.0135 59.9664 14.6727Z" fill="#3E216B"/>
<path d="M60.0039 45.7087C60.0062 47.8444 60.0252 50.0733 59.9684 52.2069C59.9518 52.112 59.8379 51.8497 59.8379 51.8546C59.7924 49.9667 59.8097 48.0565 59.8595 46.1676C59.8631 46.0252 59.9468 45.8409 60.0039 45.7087Z" fill="#3E216B"/>
<path d="M46.4789 30.1414L46.4457 30.1135C45.7581 29.5319 46.3627 29.3243 46.7956 28.8259C46.8926 28.7144 47.0101 28.606 47.114 28.499L47.2355 28.5733C47.201 28.5896 47.0788 28.6492 47.0622 28.6777C46.8487 29.0488 46.5954 29.3934 46.3763 29.7583C46.3225 29.8479 46.4513 30.0499 46.4789 30.1414Z" fill="#5E28C3"/>
<path d="M48.2047 35.7847C48.3435 35.7903 48.3677 35.8242 48.464 35.9198C48.8644 36.304 49.218 36.7489 49.6114 37.1374C50.1337 37.6523 50.6424 38.1796 51.1583 38.7002C51.7576 39.2966 52.3526 39.8975 52.9432 40.5022C53.2709 40.8345 53.6066 41.1652 53.9174 41.5119C54.0485 41.6281 54.0635 41.8701 54.0714 42.0425C54.096 42.5913 54.083 43.1574 54.082 43.7073L54.0777 46.6929L54.0834 49.0347C54.0854 49.4972 54.0993 49.9787 54.0638 50.4379C54.0538 50.5953 53.9004 50.7961 53.7882 50.9077C52.3927 52.2949 51.0175 53.7014 49.637 55.1039L47.8773 56.8932C47.6336 57.1409 47.128 57.6801 46.872 57.8747L46.8265 57.9086C46.6784 58.0215 46.2468 58.0284 46.0569 58.0298C44.3938 58.0397 42.7264 58.0357 41.0637 58.0361L31.3176 58.0344L21.8179 58.0371C20.2028 58.0374 18.4507 58.0699 16.8461 58.0288C16.7729 57.4796 16.7845 56.5722 16.7893 56.0017C16.7998 55.1341 16.8046 54.2662 16.8038 53.3983L16.8146 42.7573C16.8104 41.3923 16.7857 39.9354 16.8173 38.5771C17.7279 38.6053 19.0379 38.6372 19.9353 38.5445C19.9667 39.2547 19.9521 40.0516 19.9523 40.7668L19.9525 44.3488L19.9474 54.8778C20.8055 54.6792 22.8917 54.7559 23.85 54.7735L27.984 54.8353C32.4701 54.8688 36.9563 54.8443 41.4418 54.7613C42.1288 54.7503 42.816 54.7523 43.5027 54.7679C44.1644 54.7875 44.8669 54.8326 45.5233 54.7971C45.7381 54.6387 46.1966 54.1108 46.4128 53.9C46.8889 53.4361 47.3584 52.9557 47.8259 52.4842L49.9365 50.3423C50.2087 50.0673 50.6978 49.6433 50.901 49.3581C50.9216 48.7528 50.8993 47.9838 50.8993 47.3676L50.897 42.915C50.5816 42.4705 49.9677 41.9033 49.564 41.4959C48.7884 40.7087 48.0085 39.9258 47.2242 39.1475C46.943 38.8666 46.3075 38.2636 46.1083 37.9641C46.3949 37.5219 47.7535 36.1459 48.2047 35.7847Z" fill="#A790F2"/>
<path d="M16.8359 9.42753C17.5637 9.39357 18.4123 9.40957 19.1471 9.40787L23.2319 9.40555L34.8364 9.40552L42.6686 9.40904L45.1096 9.41173C45.5479 9.41263 45.9901 9.40539 46.4271 9.42869C46.6147 9.43866 46.8514 9.63877 46.9835 9.77039C48.4819 11.2605 49.9727 12.7662 51.4631 14.2638C52.0554 14.8525 52.6414 15.4478 53.2208 16.0494C53.327 16.1588 53.9094 16.7368 53.9393 16.8086C54.1823 17.393 54.0764 18.9107 54.0737 19.5097L54.0787 22.7226L54.0804 24.6654C54.0814 25.0466 54.1 25.4643 54.0542 25.8393C54.0379 25.9723 53.8314 26.2033 53.7338 26.3022C52.9087 27.1391 52.0687 27.9919 51.2486 28.83C51.057 29.0258 50.0361 30.097 49.8771 30.214C49.5988 29.8681 47.6422 28.6541 47.2355 28.5733L47.114 28.499C47.8318 27.7504 48.5583 27.0101 49.293 26.2781C49.6104 25.9677 50.7081 24.9527 50.895 24.6728C50.9332 23.9897 50.9046 23.1457 50.9043 22.4458L50.899 18.216C50.5879 17.7475 49.9039 17.1378 49.4806 16.7147L47.6237 14.8355C47.1034 14.3079 46.5805 13.783 46.0549 13.2608C45.862 13.0724 45.6196 12.8388 45.4114 12.6695C45.345 12.6154 44.8832 12.6054 44.7783 12.6052C43.4495 12.6022 42.1181 12.6061 40.7891 12.6089L33.6628 12.6144L25.8121 12.6137C23.8785 12.6098 21.873 12.5889 19.9436 12.6172C20.0056 16.0277 19.9502 19.5913 19.9507 23.0164L19.9492 27.5641C19.9484 28.3031 19.9737 29.253 19.9374 29.9757C18.8884 30.0667 17.8484 29.9521 16.8392 30.0123C16.789 29.2497 16.8159 28.3197 16.8172 27.5433L16.8289 23.2458L16.8359 9.42753Z" fill="#A790F2"/>
<path d="M31.8698 25.7562C31.4101 24.9642 31.1674 24.4226 31.3977 23.4833C31.7083 22.2165 33.1197 21.6803 34.2952 22.0248C34.8078 22.1739 35.2402 22.5207 35.4969 22.9888C35.8067 23.5552 35.9044 24.1315 35.7385 24.7607C35.6398 25.135 35.2003 25.6783 35.2224 25.8859C35.2715 26.346 35.4498 27.0129 35.556 27.4767L36.1445 30.1537L37.2956 35.5725C37.4218 36.1397 37.5197 36.9136 37.7116 37.4246C37.8743 36.9186 37.9832 36.398 38.1263 35.8866C38.3268 35.1688 38.5586 34.4589 38.7791 33.747C38.8939 33.3762 38.9729 32.9631 39.1333 32.611C39.1698 32.5308 39.2044 32.4715 39.2877 32.4326C39.7861 32.2002 42.2755 32.4228 43.0219 32.3475C43.3556 32.3138 43.6126 32.0038 43.8785 31.8292C44.4961 31.424 45.3234 31.3608 45.9998 31.6527C46.5137 31.8745 47.0194 32.364 47.2226 32.8912C47.4009 33.3539 47.4055 34.1803 47.1861 34.6299C46.9095 35.1957 46.4646 35.6506 45.8573 35.8501C45.2706 36.043 44.6083 36.0075 44.0558 35.7276C43.7361 35.5652 43.4751 35.3265 43.2497 35.0509C42.908 35.0489 41.3748 35.0224 41.152 35.123C40.9773 35.5682 40.8903 35.9793 40.7692 36.4395C40.6227 36.9893 40.472 37.5382 40.317 38.0857C40.0633 38.9779 39.7608 39.8597 39.5204 40.7595C39.4305 41.0966 39.2764 41.4744 39.1815 41.8147C39.295 42.0209 39.463 42.2507 39.5573 42.4449C39.7861 42.9167 39.8445 43.5835 39.6858 44.0852C39.3056 45.2884 38.0174 45.9004 36.8294 45.5431C35.6899 45.2001 35.0063 43.9547 35.3325 42.8208C35.4629 42.3872 35.683 42.1375 35.9014 41.7653C35.0237 37.8978 34.1875 34.021 33.3928 30.1355C33.1231 31.2373 32.8537 32.2711 32.5179 33.3552C32.3209 33.9917 32.1744 34.8072 31.9371 35.4225C31.8935 35.4975 31.8509 35.5656 31.7574 35.5818C31.0892 35.6977 30.1955 35.6619 29.5189 35.6609L26.1784 35.6546C26.0132 35.6778 25.109 35.6592 24.869 35.6585L21.9475 35.6552H12.1072C11.5869 36.0786 11.2691 36.4209 10.5826 36.5341C9.9878 36.6287 9.37984 36.4807 8.8953 36.1227C7.96987 35.4414 7.68154 33.9658 8.37506 33.029C8.72212 32.5261 8.9957 32.3737 9.56298 32.1441C10.891 31.8802 11.1029 32.1774 12.0871 32.9167C12.63 32.9674 13.0976 32.9474 13.6413 32.9479C14.3593 32.9548 15.0773 32.956 15.7953 32.9512L21.8493 32.9515L26.9692 32.9659C27.7033 32.97 29.2133 33.0164 29.8866 32.9344C30.2322 31.5688 30.5998 30.2089 30.9892 28.8552L31.5051 27.0674C31.6194 26.6803 31.8 26.1363 31.8698 25.7562Z" fill="#F59210"/>
<path d="M8.37505 33.0289C8.72211 32.526 8.99569 32.3736 9.56298 32.144C9.44986 32.4534 8.69661 32.9525 8.37505 33.0289Z" fill="#E99B38"/>
<path d="M40.7974 15.3562L42.8908 15.3559C43.2258 15.3555 44.1916 15.3008 44.4283 15.4954C44.8928 15.877 45.3215 16.3912 45.7507 16.8226C46.288 17.356 46.8215 17.8934 47.3507 18.4349C47.7223 18.816 48.2087 19.156 48.2203 19.7168C48.2339 20.3865 48.2704 20.9412 48.2459 21.6543C48.2279 22.1865 48.3289 23.1248 48.1194 23.6409C47.6323 24.2158 47.0127 24.763 46.4925 25.3168C45.7245 26.0369 44.9526 27.0442 44.1332 27.6651C43.5956 27.3431 42.4286 26.0491 42.0229 25.5195C41.9086 25.3704 42.7546 24.5929 42.8987 24.4514C43.3755 23.9895 43.849 23.5239 44.3184 23.0548C44.5392 22.8309 44.833 22.5358 44.9977 22.2779L45.0223 22.2391C45.0339 22.0352 45.0558 20.8087 44.9659 20.654C44.5913 20.012 43.8197 19.3907 43.3005 18.8433C43.2194 18.758 43.068 18.64 42.9512 18.6267C42.5046 18.5755 42.0441 18.5923 41.5939 18.5924L39.12 18.5938L30.7175 18.5663L25.8147 18.5663C25.8791 19.3663 25.8572 20.5 25.8579 21.3195L25.8559 25.7166L25.8631 28.0617C25.8656 28.5822 25.8893 29.5012 25.7829 29.993C24.9355 30.0283 23.4545 30.0598 22.6558 29.982C22.5976 29.4521 22.6107 28.8408 22.61 28.3014V25.9913L22.6142 18.4486C22.6134 17.8294 22.6168 17.2103 22.6242 16.5913C22.6288 16.2367 22.6535 15.714 22.6147 15.373L40.7974 15.3562Z" fill="#6134CC"/>
<path d="M22.6605 38.5588C23.5265 38.5904 24.9687 38.6116 25.8132 38.5688C25.881 39.0067 25.8609 39.548 25.8601 39.9999L25.8615 41.8396C25.8816 44.1904 25.8718 46.5415 25.832 48.892C26.3109 48.8458 27.2435 48.8611 27.7351 48.8631L30.6937 48.8737L38.6024 48.8714C40.0786 48.8731 41.6703 48.9092 43.1331 48.8691C43.4373 48.6718 44.8845 47.2039 45.0369 46.8875C45.0153 46.5332 45.0356 46.1783 45.0296 45.8237C45.0266 45.6467 45.021 45.4468 44.937 45.2871C44.6514 44.7446 42.8313 43.0804 42.2968 42.5479C42.2184 42.4698 42.0278 42.2829 42.0431 42.1693C42.0783 41.9037 43.8709 40.1526 44.178 39.9457C44.4456 40.1376 44.9217 40.6387 45.1701 40.895C45.5705 41.3087 45.9898 41.7111 46.3899 42.1212C46.7126 42.4901 48.1655 43.7575 48.2073 44.1619C48.3312 45.3539 48.2585 46.7149 48.2379 47.9231C48.2289 48.4461 47.9424 48.5975 47.6144 48.9468C46.6246 49.8987 45.6797 50.9084 44.6817 51.852C44.5143 52.0101 44.3974 52.0782 44.1647 52.0875C43.0249 52.1329 41.8821 52.1246 40.7413 52.1233L34.4964 52.1216L27.2673 52.1273C25.8508 52.1296 24.0386 52.1831 22.6544 52.0622C22.5793 51.5104 22.6082 50.408 22.6076 49.8061L22.6086 45.6869L22.6086 40.8582C22.6069 40.4986 22.5927 38.7946 22.6605 38.5588Z" fill="#6134CC"/>
</g>
</g>
</g>
<defs>
<clipPath id="clip0_14_833">
<rect width="68" height="68" fill="white"/>
</clipPath>
<clipPath id="clip1_14_833">
<rect width="62.22" height="68" fill="white" transform="translate(2.89)"/>
</clipPath>
</defs>
</svg>
